<svg width="1326" height="77" viewBox="0 0 1326 77" fill="none" xmlns="http://www.w3.org/2000/svg">
<path d="M6.11523 5.97656H69.2793L69.709 6.40625V11.3477L69.2793 11.7773H11.4863V35.8398H51.2324L51.6621 36.2695V41.4258L51.2324 41.8555H11.4863V64.1992H69.2793L69.709 64.6289V69.5703L69.2793 70H6.11523L5.68555 69.5703V6.40625L6.11523 5.97656Z" stroke="#9EC119" stroke-width="10" />
<path d="M75.5098 5.97656H116.975C127.896 5.97656 136.848 11.4193 143.83 22.3047C146.408 27.4609 147.697 32.1875 147.697 36.4844V39.4922C147.697 49.196 142.899 57.7181 133.303 65.0586C127.609 68.3529 122.382 70 117.619 70H75.5098L75.0801 69.5703V6.40625L75.5098 5.97656ZM80.8809 12.207V63.7695H116.545C126.356 63.7695 133.947 58.7565 139.318 48.7305C140.751 45.293 141.467 42.0703 141.467 39.0625V36.6992C141.467 28.4993 137.385 21.5527 129.221 15.8594C125.139 13.4245 120.913 12.207 116.545 12.207H80.8809Z" stroke="#9EC119" stroke-width="10" />
<path d="M144.475 5.97656H206.135L206.564 6.40625V11.3477L206.135 11.7773H178.205V64.1992H206.135L206.564 64.6289V69.5703L206.135 70H144.475L144.045 69.5703V64.6289L144.475 64.1992H172.404V11.7773H144.475L144.045 11.3477V6.40625L144.475 5.97656Z" stroke="#9EC119" stroke-width="10" />
<path d="M230.842 5.97656H278.537L278.967 6.40625V11.3477L278.537 11.7773H234.924C229.051 11.7773 225.256 13.0664 223.537 15.6445C221.532 17.972 220.529 20.4069 220.529 22.9492C220.529 28.3919 223.394 32.1159 229.123 34.1211L231.271 34.3359H263.713C270.409 34.3359 275.637 37.7018 279.396 44.4336C280.542 46.6178 281.115 48.9811 281.115 51.5234V53.6719C281.115 58.8639 278.107 63.5905 272.092 67.8516C269.012 69.2839 266.577 70 264.787 70H215.158L214.729 69.5703V64.4141L215.158 63.9844H261.135C268.153 63.9844 272.593 61.3346 274.455 56.0352L275.1 52.3828C275.1 46.5104 272.02 42.6432 265.861 40.7812L264.357 40.5664L230.197 40.3516C226.115 40.3516 221.962 37.9883 217.736 33.2617C215.731 30.0033 214.729 26.8522 214.729 23.8086V22.0898C214.729 16.3607 217.951 11.4909 224.396 7.48047C227.154 6.47786 229.302 5.97656 230.842 5.97656Z" stroke="#9EC119" stroke-width="10" />
<path d="M302.6 5.97656H350.295L350.725 6.40625V11.3477L350.295 11.7773H306.682C300.809 11.7773 297.014 13.0664 295.295 15.6445C293.29 17.972 292.287 20.4069 292.287 22.9492C292.287 28.3919 295.152 32.1159 300.881 34.1211L303.029 34.3359H335.471C342.167 34.3359 347.395 37.7018 351.154 44.4336C352.3 46.6178 352.873 48.9811 352.873 51.5234V53.6719C352.873 58.8639 349.865 63.5905 343.85 67.8516C340.77 69.2839 338.335 70 336.545 70H286.916L286.486 69.5703V64.4141L286.916 63.9844H332.893C339.911 63.9844 344.351 61.3346 346.213 56.0352L346.857 52.3828C346.857 46.5104 343.778 42.6432 337.619 40.7812L336.115 40.5664L301.955 40.3516C297.873 40.3516 293.719 37.9883 289.494 33.2617C287.489 30.0033 286.486 26.8522 286.486 23.8086V22.0898C286.486 16.3607 289.709 11.4909 296.154 7.48047C298.911 6.47786 301.06 5.97656 302.6 5.97656Z" stroke="#9EC119" stroke-width="10"/>
<path d="M388.537 5.97656H400.354C409.842 5.97656 418.221 10.7031 425.49 20.1562C428.928 26.0286 430.646 31.4714 430.646 36.4844V39.4922C430.646 47.6921 426.994 55.2832 419.689 62.2656C413.423 67.4219 406.978 70 400.354 70H388.537C379.048 70 370.669 65.2734 363.4 55.8203C359.963 49.9479 358.244 44.5052 358.244 39.4922V36.4844C358.244 27.64 362.326 19.6908 370.49 12.6367C376.47 8.19661 382.486 5.97656 388.537 5.97656ZM364.475 36.9141V38.2031C364.475 49.196 370.061 57.2168 381.232 62.2656C384.276 63.2682 387.069 63.7695 389.611 63.7695H399.279C409.27 63.7695 416.932 58.6849 422.268 48.5156C423.7 45.3288 424.416 41.8913 424.416 38.2031V36.9141C424.416 28.4277 420.119 21.2663 411.525 15.4297C407.229 13.2812 403.146 12.207 399.279 12.207H389.611C379.8 12.207 372.137 17.2201 366.623 27.2461C365.191 31.0059 364.475 34.2285 364.475 36.9141Z" stroke="#9EC119" stroke-width="10"/>
<path d="M436.447 5.97656H441.818L491.877 63.125V6.40625L492.307 5.97656H497.248L497.678 6.40625V69.5703L497.248 70H489.943L441.818 15V69.5703L441.389 70H436.447L436.018 69.5703V6.40625L436.447 5.97656Z" stroke="#9EC119" stroke-width="10"/>
<path d="M560.788 37.1826V43.6816H537.961V37.1826H560.788Z" stroke="#9EC119" stroke-width="10" />
<path d="M601.555 5.97656H663.215L663.645 6.40625V11.3477L663.215 11.7773H635.285V64.1992H663.215L663.645 64.6289V69.5703L663.215 70H601.555L601.125 69.5703V64.6289L601.555 64.1992H629.484V11.7773H601.555L601.125 11.3477V6.40625L601.555 5.97656Z" stroke="#9EC119" stroke-width="10" />
<path d="M672.238 5.97656H677.609L727.668 63.125V6.40625L728.098 5.97656H733.039L733.469 6.40625V69.5703L733.039 70H725.734L677.609 15V69.5703L677.18 70H672.238L671.809 69.5703V6.40625L672.238 5.97656Z" stroke="#9EC119" stroke-width="10" />
<path d="M739.27 5.97656H780.734C791.656 5.97656 800.607 11.4193 807.59 22.3047C810.168 27.4609 811.457 32.1875 811.457 36.4844V39.4922C811.457 49.196 806.659 57.7181 797.062 65.0586C791.369 68.3529 786.141 70 781.379 70H739.27L738.84 69.5703V6.40625L739.27 5.97656ZM744.641 12.207V63.7695H780.305C790.116 63.7695 797.707 58.7565 803.078 48.7305C804.51 45.293 805.227 42.0703 805.227 39.0625V36.6992C805.227 28.4993 801.145 21.5527 792.98 15.8594C788.898 13.4245 784.673 12.207 780.305 12.207H744.641Z" stroke="#9EC119" stroke-width="10"/>
<path d="M817.258 5.97656H822.414L822.844 6.40625V35.625C822.844 48.8737 828.143 57.6823 838.742 62.0508C840.425 62.9818 843.576 63.6263 848.195 63.9844C857.863 63.9844 865.454 59.2578 870.969 49.8047C872.688 46.3672 873.547 41.7122 873.547 35.8398V6.40625L873.977 5.97656H879.133L879.562 6.40625V40.1367C879.562 48.8379 875.409 56.7155 867.102 63.7695C861.372 67.9232 855.357 70 849.055 70H846.691C837.954 70 830.077 65.8464 823.059 57.5391C818.905 51.8099 816.828 45.7943 816.828 39.4922V6.40625L817.258 5.97656Z" stroke="#9EC119" stroke-width="10"/>
<path d="M901.047 5.97656H948.742L949.172 6.40625V11.3477L948.742 11.7773H905.129C899.257 11.7773 895.461 13.0664 893.742 15.6445C891.737 17.972 890.734 20.4069 890.734 22.9492C890.734 28.3919 893.599 32.1159 899.328 34.1211L901.477 34.3359H933.918C940.614 34.3359 945.842 37.7018 949.602 44.4336C950.747 46.6178 951.32 48.9811 951.32 51.5234V53.6719C951.32 58.8639 948.312 63.5905 942.297 67.8516C939.217 69.2839 936.783 70 934.992 70H885.363L884.934 69.5703V64.4141L885.363 63.9844H931.34C938.358 63.9844 942.798 61.3346 944.66 56.0352L945.305 52.3828C945.305 46.5104 942.225 42.6432 936.066 40.7812L934.562 40.5664L900.402 40.3516C896.32 40.3516 892.167 37.9883 887.941 33.2617C885.936 30.0033 884.934 26.8522 884.934 23.8086V22.0898C884.934 16.3607 888.156 11.4909 894.602 7.48047C897.359 6.47786 899.507 5.97656 901.047 5.97656Z" stroke="#9EC119" stroke-width="10" />
<path d="M957.121 5.97656H1038.76L1039.19 6.40625V11.3477L1038.76 11.7773H1000.95V69.5703L1000.52 70H995.363L994.934 69.5703V11.7773H957.121L956.691 11.3477V6.40625L957.121 5.97656Z" stroke="#9EC119" stroke-width="10" />
<path d="M1044.99 5.97656H1092.69C1098.52 5.97656 1103.47 9.34245 1107.51 16.0742C1108.37 18.724 1108.8 20.7292 1108.8 22.0898V23.8086C1108.8 30.8984 1104.93 36.1263 1097.2 39.4922C1095.52 40.0651 1094.01 40.3516 1092.69 40.3516H1081.3L1108.59 69.7852V70H1100.85L1073.14 40.3516H1050.36V69.5703L1049.93 70H1044.99L1044.56 69.5703V6.40625L1044.99 5.97656ZM1050.36 11.7773V34.3359H1092.69C1096.52 34.3359 1099.6 32.1159 1101.93 27.6758C1102.32 27.1029 1102.68 25.599 1103 23.1641C1103 18.2585 1100.35 14.6777 1095.05 12.4219L1093.12 11.9922L1050.36 11.7773Z" stroke="#9EC119" stroke-width="10"/>
<path d="M1114.6 5.97656H1176.26L1176.69 6.40625V11.3477L1176.26 11.7773H1148.33V64.1992H1176.26L1176.69 64.6289V69.5703L1176.26 70H1114.6L1114.17 69.5703V64.6289L1114.6 64.1992H1142.53V11.7773H1114.6L1114.17 11.3477V6.40625L1114.6 5.97656Z" stroke="#9EC119" stroke-width="10" />
<path d="M1185.29 5.97656H1248.45L1248.88 6.40625V11.3477L1248.45 11.7773H1190.66V35.8398H1230.4L1230.83 36.2695V41.4258L1230.4 41.8555H1190.66V64.1992H1248.45L1248.88 64.6289V69.5703L1248.45 70H1185.29L1184.86 69.5703V6.40625L1185.29 5.97656Z" stroke="#9EC119" stroke-width="10"/>
<path d="M1270.36 5.97656H1318.06L1318.49 6.40625V11.3477L1318.06 11.7773H1274.45C1268.57 11.7773 1264.78 13.0664 1263.06 15.6445C1261.05 17.972 1260.05 20.4069 1260.05 22.9492C1260.05 28.3919 1262.92 32.1159 1268.64 34.1211L1270.79 34.3359H1303.23C1309.93 34.3359 1315.16 37.7018 1318.92 44.4336C1320.06 46.6178 1320.64 48.9811 1320.64 51.5234V53.6719C1320.64 58.8639 1317.63 63.5905 1311.61 67.8516C1308.53 69.2839 1306.1 70 1304.31 70H1254.68L1254.25 69.5703V64.4141L1254.68 63.9844H1300.66C1307.67 63.9844 1312.11 61.3346 1313.98 56.0352L1314.62 52.3828C1314.62 46.5104 1311.54 42.6432 1305.38 40.7812L1303.88 40.5664L1269.72 40.3516C1265.64 40.3516 1261.48 37.9883 1257.26 33.2617C1255.25 30.0033 1254.25 26.8522 1254.25 23.8086V22.0898C1254.25 16.3607 1257.47 11.4909 1263.92 7.48047C1266.68 6.47786 1268.82 5.97656 1270.36 5.97656Z" stroke="#9EC119" stroke-width="10"/>
</svg>