<svg width="1050" height="75" viewBox="0 0 1050 75" fill="none" xmlns="http://www.w3.org/2000/svg">
<path d="M12.128 11.192V33.56H36.512V40.76H12.128V63.8H39.392V71H3.392V3.992H39.392V11.192H12.128Z" stroke="#9EC10F" stroke-width="5"/>
<path d="M75.3627 4.088C82.6587 4.088 88.9627 5.464 94.2747 8.216C99.6508 10.904 103.747 14.776 106.563 19.832C109.443 24.888 110.883 30.84 110.883 37.688C110.883 44.536 109.443 50.488 106.563 55.544C103.747 60.536 99.6508 64.376 94.2747 67.064C88.9627 69.688 82.6587 71 75.3627 71H54.5307V4.088H75.3627ZM75.3627 63.8C84.0027 63.8 90.5947 61.528 95.1387 56.984C99.6828 52.376 101.955 45.944 101.955 37.688C101.955 29.368 99.6507 22.872 95.0427 18.2C90.4987 13.528 83.9387 11.192 75.3627 11.192H63.2667V63.8H75.3627Z" stroke="#9EC10F" stroke-width="5"/>
<path d="M133.062 4.088V71H124.326V4.088H133.062Z" stroke="#9EC10F" stroke-width="5"/>
<path d="M171.087 71.672C166.671 71.672 162.703 70.904 159.183 69.368C155.727 67.768 153.007 65.592 151.023 62.84C149.039 60.024 148.015 56.792 147.951 53.144H157.263C157.583 56.28 158.863 58.936 161.103 61.112C163.407 63.224 166.735 64.28 171.087 64.28C175.247 64.28 178.511 63.256 180.879 61.208C183.311 59.096 184.527 56.408 184.527 53.144C184.527 50.584 183.823 48.504 182.415 46.904C181.007 45.304 179.247 44.088 177.135 43.256C175.023 42.424 172.175 41.528 168.591 40.568C164.175 39.416 160.623 38.264 157.935 37.112C155.311 35.96 153.039 34.168 151.119 31.736C149.263 29.24 148.335 25.912 148.335 21.752C148.335 18.104 149.263 14.872 151.119 12.056C152.975 9.24 155.567 7.064 158.895 5.528C162.287 3.992 166.159 3.224 170.511 3.224C176.783 3.224 181.903 4.792 185.871 7.928C189.903 11.064 192.175 15.224 192.687 20.408H183.087C182.767 17.848 181.423 15.608 179.055 13.688C176.687 11.704 173.551 10.712 169.647 10.712C165.999 10.712 163.023 11.672 160.719 13.592C158.415 15.448 157.263 18.072 157.263 21.464C157.263 23.896 157.935 25.88 159.279 27.416C160.687 28.952 162.383 30.136 164.367 30.968C166.415 31.736 169.263 32.632 172.911 33.656C177.327 34.872 180.879 36.088 183.567 37.304C186.255 38.456 188.559 40.28 190.479 42.776C192.399 45.208 193.359 48.536 193.359 52.76C193.359 56.024 192.495 59.096 190.767 61.976C189.039 64.856 186.479 67.192 183.087 68.984C179.695 70.776 175.695 71.672 171.087 71.672Z" stroke="#9EC10F" stroke-width="5"/>
<path d="M229.35 71.672C224.934 71.672 220.966 70.904 217.446 69.368C213.99 67.768 211.27 65.592 209.286 62.84C207.302 60.024 206.278 56.792 206.214 53.144H215.526C215.846 56.28 217.126 58.936 219.366 61.112C221.67 63.224 224.998 64.28 229.35 64.28C233.51 64.28 236.774 63.256 239.142 61.208C241.574 59.096 242.79 56.408 242.79 53.144C242.79 50.584 242.086 48.504 240.678 46.904C239.27 45.304 237.51 44.088 235.398 43.256C233.286 42.424 230.438 41.528 226.854 40.568C222.438 39.416 218.886 38.264 216.198 37.112C213.574 35.96 211.302 34.168 209.382 31.736C207.526 29.24 206.598 25.912 206.598 21.752C206.598 18.104 207.526 14.872 209.382 12.056C211.238 9.24 213.83 7.064 217.158 5.528C220.55 3.992 224.422 3.224 228.774 3.224C235.046 3.224 240.166 4.792 244.134 7.928C248.166 11.064 250.439 15.224 250.951 20.408H241.35C241.03 17.848 239.686 15.608 237.318 13.688C234.95 11.704 231.814 10.712 227.91 10.712C224.262 10.712 221.286 11.672 218.982 13.592C216.678 15.448 215.526 18.072 215.526 21.464C215.526 23.896 216.198 25.88 217.542 27.416C218.95 28.952 220.646 30.136 222.63 30.968C224.678 31.736 227.527 32.632 231.174 33.656C235.59 34.872 239.142 36.088 241.83 37.304C244.518 38.456 246.822 40.28 248.742 42.776C250.662 45.208 251.622 48.536 251.622 52.76C251.622 56.024 250.758 59.096 249.03 61.976C247.302 64.856 244.742 67.192 241.35 68.984C237.958 70.776 233.958 71.672 229.35 71.672Z" stroke="#9EC10F" stroke-width="5"/>
<path d="M296.734 71.672C290.526 71.672 284.862 70.232 279.742 67.352C274.622 64.408 270.558 60.344 267.55 55.16C264.606 49.912 263.134 44.024 263.134 37.496C263.134 30.968 264.606 25.112 267.55 19.928C270.558 14.68 274.622 10.616 279.742 7.736C284.862 4.792 290.526 3.32 296.734 3.32C303.006 3.32 308.702 4.792 313.822 7.736C318.942 10.616 322.974 14.648 325.918 19.832C328.862 25.016 330.334 30.904 330.334 37.496C330.334 44.088 328.862 49.976 325.918 55.16C322.974 60.344 318.942 64.408 313.822 67.352C308.702 70.232 303.006 71.672 296.734 71.672ZM296.734 64.088C301.406 64.088 305.598 63 309.31 60.824C313.086 58.648 316.03 55.544 318.142 51.512C320.318 47.48 321.406 42.808 321.406 37.496C321.406 32.12 320.318 27.448 318.142 23.48C316.03 19.448 313.118 16.344 309.406 14.168C305.694 11.992 301.47 10.904 296.734 10.904C291.998 10.904 287.774 11.992 284.062 14.168C280.35 16.344 277.406 19.448 275.23 23.48C273.118 27.448 272.062 32.12 272.062 37.496C272.062 42.808 273.118 47.48 275.23 51.512C277.406 55.544 280.35 58.648 284.062 60.824C287.838 63 292.062 64.088 296.734 64.088Z" stroke="#9EC10F" stroke-width="5"/>
<path d="M396.395 71H387.659L352.523 17.72V71H343.787V3.992H352.523L387.659 57.176V3.992H396.395V71Z" stroke="#9EC10F" stroke-width="5"/>
<path d="M477.201 32.12V39.512H438.897V32.12H477.201Z" stroke="#9EC10F" stroke-width="5"/>
<path d="M531.765 4.088V71H523.03V4.088H531.765Z" stroke="#9EC10F" stroke-width="5"/>
<path d="M601.182 71H592.446L557.31 17.72V71H548.574V3.992H557.31L592.446 57.176V3.992H601.182V71Z" stroke="#9EC10F" stroke-width="5"/>
<path d="M638.826 4.088C646.122 4.088 652.426 5.464 657.738 8.216C663.114 10.904 667.21 14.776 670.026 19.832C672.906 24.888 674.346 30.84 674.346 37.688C674.346 44.536 672.906 50.488 670.026 55.544C667.21 60.536 663.114 64.376 657.738 67.064C652.426 69.688 646.122 71 638.826 71H617.994V4.088H638.826ZM638.826 63.8C647.466 63.8 654.058 61.528 658.602 56.984C663.146 52.376 665.418 45.944 665.418 37.688C665.418 29.368 663.114 22.872 658.506 18.2C653.962 13.528 647.402 11.192 638.826 11.192H626.73V63.8H638.826Z" stroke="#9EC10F" stroke-width="5"/>
<path d="M696.333 4.088V46.424C696.333 52.376 697.773 56.792 700.653 59.672C703.597 62.552 707.661 63.992 712.845 63.992C717.965 63.992 721.965 62.552 724.845 59.672C727.789 56.792 729.262 52.376 729.262 46.424V4.088H737.997V46.328C737.997 51.896 736.877 56.6 734.637 60.44C732.397 64.216 729.357 67.032 725.517 68.888C721.741 70.744 717.485 71.672 712.749 71.672C708.013 71.672 703.725 70.744 699.885 68.888C696.109 67.032 693.101 64.216 690.861 60.44C688.685 56.6 687.598 51.896 687.598 46.328V4.088H696.333Z" stroke="#9EC10F" stroke-width="5"/>
<path d="M775.707 71.672C771.291 71.672 767.323 70.904 763.803 69.368C760.347 67.768 757.627 65.592 755.643 62.84C753.659 60.024 752.635 56.792 752.571 53.144H761.883C762.203 56.28 763.483 58.936 765.723 61.112C768.027 63.224 771.355 64.28 775.707 64.28C779.867 64.28 783.131 63.256 785.499 61.208C787.931 59.096 789.147 56.408 789.147 53.144C789.147 50.584 788.443 48.504 787.035 46.904C785.627 45.304 783.867 44.088 781.755 43.256C779.643 42.424 776.795 41.528 773.211 40.568C768.795 39.416 765.243 38.264 762.555 37.112C759.931 35.96 757.659 34.168 755.739 31.736C753.883 29.24 752.955 25.912 752.955 21.752C752.955 18.104 753.883 14.872 755.739 12.056C757.595 9.24 760.187 7.064 763.515 5.528C766.907 3.992 770.779 3.224 775.131 3.224C781.403 3.224 786.523 4.792 790.491 7.928C794.523 11.064 796.795 15.224 797.307 20.408H787.707C787.387 17.848 786.043 15.608 783.675 13.688C781.307 11.704 778.171 10.712 774.267 10.712C770.619 10.712 767.643 11.672 765.339 13.592C763.035 15.448 761.883 18.072 761.883 21.464C761.883 23.896 762.555 25.88 763.899 27.416C765.307 28.952 767.003 30.136 768.987 30.968C771.035 31.736 773.883 32.632 777.531 33.656C781.947 34.872 785.499 36.088 788.187 37.304C790.875 38.456 793.179 40.28 795.099 42.776C797.019 45.208 797.979 48.536 797.979 52.76C797.979 56.024 797.115 59.096 795.387 61.976C793.659 64.856 791.099 67.192 787.707 68.984C784.315 70.776 780.315 71.672 775.707 71.672Z" stroke="#9EC10F" stroke-width="5"/>
<path d="M853.938 4.088V11.192H835.698V71H826.962V11.192H808.626V4.088H853.938Z" stroke="#9EC10F" stroke-width="5"/>
<path d="M901.844 71L885.908 43.64H875.348V71H866.612V4.088H888.212C893.268 4.088 897.524 4.952 900.98 6.68C904.5 8.408 907.124 10.744 908.852 13.688C910.58 16.632 911.444 19.992 911.444 23.768C911.444 28.376 910.1 32.44 907.412 35.96C904.788 39.48 900.82 41.816 895.508 42.968L912.308 71H901.844ZM875.348 36.632H888.212C892.948 36.632 896.5 35.48 898.868 33.176C901.236 30.808 902.42 27.672 902.42 23.768C902.42 19.8 901.236 16.728 898.868 14.552C896.564 12.376 893.012 11.288 888.212 11.288H875.348V36.632Z" stroke="#9EC10F" stroke-width="5"/>
<path d="M935.674 4.088V71H926.938V4.088H935.674Z" stroke="#9EC10F" stroke-width="5"/>
<path d="M961.219 11.192V33.56H985.603V40.76H961.219V63.8H988.483V71H952.483V3.992H988.483V11.192H961.219Z" stroke="#9EC10F" stroke-width="5"/>
<path d="M1024.84 71.672C1020.42 71.672 1016.45 70.904 1012.93 69.368C1009.48 67.768 1006.76 65.592 1004.77 62.84C1002.79 60.024 1001.77 56.792 1001.7 53.144H1011.01C1011.33 56.28 1012.61 58.936 1014.85 61.112C1017.16 63.224 1020.49 64.28 1024.84 64.28C1029 64.28 1032.26 63.256 1034.63 61.208C1037.06 59.096 1038.28 56.408 1038.28 53.144C1038.28 50.584 1037.57 48.504 1036.17 46.904C1034.76 45.304 1033 44.088 1030.89 43.256C1028.77 42.424 1025.93 41.528 1022.34 40.568C1017.93 39.416 1014.37 38.264 1011.69 37.112C1009.06 35.96 1006.79 34.168 1004.87 31.736C1003.01 29.24 1002.09 25.912 1002.09 21.752C1002.09 18.104 1003.01 14.872 1004.87 12.056C1006.73 9.24 1009.32 7.064 1012.65 5.528C1016.04 3.992 1019.91 3.224 1024.26 3.224C1030.53 3.224 1035.65 4.792 1039.62 7.928C1043.65 11.064 1045.93 15.224 1046.44 20.408H1036.84C1036.52 17.848 1035.17 15.608 1032.81 13.688C1030.44 11.704 1027.3 10.712 1023.4 10.712C1019.75 10.712 1016.77 11.672 1014.47 13.592C1012.17 15.448 1011.01 18.072 1011.01 21.464C1011.01 23.896 1011.69 25.88 1013.03 27.416C1014.44 28.952 1016.13 30.136 1018.12 30.968C1020.17 31.736 1023.01 32.632 1026.66 33.656C1031.08 34.872 1034.63 36.088 1037.32 37.304C1040.01 38.456 1042.31 40.28 1044.23 42.776C1046.15 45.208 1047.11 48.536 1047.11 52.76C1047.11 56.024 1046.25 59.096 1044.52 61.976C1042.79 64.856 1040.23 67.192 1036.84 68.984C1033.45 70.776 1029.45 71.672 1024.84 71.672Z" stroke="#9EC10F" stroke-width="5"/>
</svg>


